<?xml version="1.0" standalone="no"?>
<!DOCTYPE svg PUBLIC "-//W3C//DTD SVG 20010904//EN"
 "http://www.w3.org/TR/2001/REC-SVG-20010904/DTD/svg10.dtd">
<svg version="1.0" xmlns="http://www.w3.org/2000/svg"
 width="1000.000000pt" height="1000.000000pt" viewBox="0 0 1000.000000 1000.000000"
 preserveAspectRatio="xMidYMid meet">
<metadata>
Created by potrace 1.14, written by Peter Selinger 2001-2017
</metadata>
<g transform="translate(0.000000,1000.000000) scale(0.100000,-0.100000)"
fill="#000000" stroke="none">
<path d="M0 5000 l0 -5000 5000 0 5000 0 0 5000 0 5000 -5000 0 -5000 0 0
-5000z m5997 4187 c12 -12 86 -130 163 -262 78 -132 144 -241 145 -243 2 -2
373 118 826 267 452 149 837 271 856 271 22 0 42 -9 62 -27 36 -33 1383 -2307
1389 -2343 3 -21 -1319 -4589 -1348 -4657 -5 -12 -23 -29 -40 -38 -52 -27
-3940 -1305 -3968 -1305 -55 1 -75 25 -227 281 -109 182 -156 253 -168 251 -9
-1 -378 -122 -820 -267 -514 -169 -818 -265 -844 -265 -29 0 -47 7 -64 24 -13
13 -330 541 -704 1172 -604 1020 -680 1153 -679 1189 0 36 1321 4590 1345
4640 6 12 19 26 29 33 11 6 844 284 1852 616 1008 332 1896 625 1973 650 151
50 184 52 222 13z"/>
<path d="M4020 8381 c-1009 -334 -1841 -609 -1848 -611 -8 -3 204 -372 609
-1055 342 -578 623 -1052 625 -1054 4 -4 841 267 853 275 2 2 -65 432 -149
955 -168 1043 -162 976 -100 1020 19 14 987 337 2021 675 l77 25 -112 189
c-68 117 -117 189 -126 189 -8 -1 -841 -274 -1850 -608z"/>
<path d="M7109 8728 l-695 -231 423 -716 c234 -394 428 -719 431 -723 4 -4
131 416 282 935 150 518 275 948 278 955 2 6 -2 12 -9 11 -8 -1 -327 -105
-710 -231z"/>
<path d="M7633 7562 c-209 -719 -380 -1308 -379 -1309 4 -5 1926 633 1926 640
0 5 -1150 1956 -1164 1974 -1 1 -173 -586 -383 -1305z"/>
<path d="M5207 8101 c-553 -183 -986 -331 -985 -337 2 -6 207 -355 456 -776
l453 -765 587 194 c323 106 773 254 999 329 l413 135 -13 23 c-74 137 -904
1526 -912 1525 -5 -1 -454 -148 -998 -328z"/>
<path d="M1431 5485 c-332 -1142 -602 -2078 -599 -2080 8 -8 1982 645 1994
660 13 18 427 1440 423 1453 -7 20 -1204 2041 -1209 2041 -3 1 -277 -933 -609
-2074z"/>
<path d="M4254 7275 c3 -16 49 -298 101 -625 52 -327 97 -607 101 -622 l5 -26
232 78 c128 43 231 81 230 86 -2 10 -661 1126 -670 1134 -3 3 -3 -8 1 -25z"/>
<path d="M6205 6363 c-528 -174 -961 -318 -963 -319 -8 -5 224 -384 233 -380
6 2 355 117 776 256 420 139 766 254 767 255 4 3 151 505 148 505 0 -1 -433
-143 -961 -317z"/>
<path d="M8175 6340 l-990 -327 -12 -34 c-51 -152 -413 -1424 -409 -1436 11
-27 1200 -2033 1206 -2033 3 0 250 838 548 1863 298 1024 571 1960 606 2080
37 127 59 217 52 216 -6 -1 -456 -149 -1001 -329z"/>
<path d="M4765 5887 c-148 -49 -271 -90 -271 -91 -1 0 43 -278 97 -616 l99
-614 136 -231 c75 -126 139 -233 143 -237 3 -4 128 33 276 82 l270 89 -3 28
c-2 15 -46 293 -97 616 l-95 588 -136 232 c-75 128 -139 235 -143 238 -3 4
-127 -34 -276 -84z"/>
<path d="M6240 5701 c-377 -124 -690 -229 -696 -231 -8 -4 15 -174 79 -570
l91 -566 426 140 426 140 172 591 c95 324 181 620 191 658 14 47 16 67 8 66
-7 0 -320 -103 -697 -228z"/>
<path d="M3860 5590 l-415 -139 -192 -658 c-105 -361 -191 -658 -190 -659 3
-1 1408 463 1411 467 2 2 -36 252 -85 554 -49 303 -89 556 -89 563 0 6 -6 12
-12 11 -7 0 -200 -63 -428 -139z"/>
<path d="M3780 4155 c-421 -139 -772 -258 -780 -266 -15 -14 -157 -485 -149
-494 4 -3 1909 621 1916 629 2 2 -47 89 -109 193 l-113 190 -765 -252z"/>
<path d="M6171 4270 c-227 -77 -416 -141 -418 -144 -3 -2 64 -430 147 -950
165 -1023 161 -983 105 -1020 -12 -8 -490 -168 -1061 -357 -571 -188 -1040
-342 -1041 -343 -5 -4 226 -381 233 -379 23 3 3700 1217 3706 1222 8 7 -1233
2103 -1247 2107 -5 1 -196 -60 -424 -136z"/>
<path d="M5303 3983 c-220 -74 -223 -75 -210 -97 44 -80 660 -1116 663 -1114
3 3 -191 1222 -201 1266 -3 12 -11 22 -18 21 -6 0 -112 -34 -234 -76z"/>
<path d="M3875 3513 c-545 -180 -991 -327 -993 -329 -3 -2 896 -1524 909
-1538 8 -9 1999 642 1999 653 0 13 -906 1535 -915 1537 -5 2 -455 -144 -1000
-323z"/>
<path d="M1798 3501 c-526 -174 -960 -319 -964 -323 -5 -6 1157 -1981 1163
-1975 4 4 762 2611 760 2613 -1 0 -433 -141 -959 -315z"/>
<path d="M2458 2067 c-152 -524 -275 -954 -272 -956 5 -5 1385 448 1397 459 6
5 -815 1411 -842 1442 -3 4 -131 -422 -283 -945z"/>
</g>
</svg>
